<?xml version="1.0" encoding="UTF-8" standalone="no"?>
<!-- Created with Inkscape (http://www.inkscape.org/) -->

<svg
   width="4.1461544cm"
   height="4.1461539cm"
   viewBox="0 0 156.70505 156.70503"
   version="1.1"
   id="svg1"
   xml:space="preserve"
   xmlns="http://www.w3.org/2000/svg"
   xmlns:svg="http://www.w3.org/2000/svg"><defs
     id="defs1" /><g
     id="layer1"
     transform="translate(-2.6509649,-6.6868531)"><g
       id="g2"
       transform="translate(-224.26605,-226.33557)"><circle
         style="fill:#ff9955;stroke-width:0.652542"
         id="path1"
         cx="305.26953"
         cy="311.37494"
         r="78.352516" /><path
         d="m 403.37872,328.12494 16.34375,-46.5625 h 12.375 l 16.34375,46.5625 h -10.65625 l -7.3125,-22.65625 q -1.34375,-4.46875 -2.78125,-9.1875 -1.40625,-4.75 -3.0625,-10.78125 h 2.65625 q -1.71875,6.03125 -3.15625,10.78125 -1.40625,4.71875 -2.8125,9.1875 l -7.5625,22.65625 z m 10.375,-10.15625 v -7.6875 h 24.34375 v 7.6875 z m 48.9375,10.15625 q -5.65625,0 -8.1875,-2.0625 -2.5,-2.09375 -2.5,-6.875 v -37.625 h 9.21875 v 36.75 q 0,1.53125 0.625,2.15625 0.625,0.59375 2.15625,0.59375 0.3125,0 0.6875,0 0.375,0 0.65625,0 v 7.0625 q -0.65625,0 -1.34375,0 -0.65625,0 -1.3125,0 z m 6.78125,0 v -33 h 8.875 v 7.4375 h -0.5625 q 0.875,-2.75 2.46875,-4.53125 1.59375,-1.8125 3.6875,-2.6875 2.09375,-0.90625 4.40625,-0.90625 3.78125,0 6.5625,2.1875 2.78125,2.15625 3.375,5.9375 h -0.96875 q 0.625,-2.53125 2.21875,-4.34375 1.59375,-1.8125 3.875,-2.78125 2.3125,-1 5,-1 3.1875,0 5.6875,1.375 2.53125,1.375 3.96875,4.03125 1.4375,2.625 1.4375,6.40625 v 21.875 h -9.1875 v -20.1875 q 0,-2.96875 -1.625,-4.4375 -1.59375,-1.46875 -3.96875,-1.46875 -1.75,0 -3.0625,0.78125 -1.3125,0.78125 -2.03125,2.1875 -0.6875,1.375 -0.6875,3.25 v 19.875 h -8.875 v -20.4375 q 0,-2.5625 -1.53125,-4.09375 -1.53125,-1.5625 -3.96875,-1.5625 -1.625,0 -2.96875,0.78125 -1.3125,0.75 -2.125,2.25 -0.78125,1.46875 -0.78125,3.59375 v 19.46875 z m 71.875,0.75 q -4.96875,0 -8.75,-2.15625 -3.78125,-2.15625 -5.90625,-6.03125 -2.09375,-3.875 -2.09375,-9.03125 0,-5.1875 2.09375,-9.0625 2.125,-3.875 5.90625,-6.03125 3.78125,-2.1875 8.75,-2.1875 5.03125,0 8.78125,2.1875 3.78125,2.15625 5.875,6.03125 2.125,3.875 2.125,9.0625 0,5.15625 -2.125,9.03125 -2.09375,3.875 -5.875,6.03125 -3.75,2.15625 -8.78125,2.15625 z m 0,-7.46875 q 2.25,0 3.9375,-1.15625 1.6875,-1.1875 2.625,-3.375 0.9375,-2.1875 0.9375,-5.21875 0,-3.09375 -0.9375,-5.28125 -0.9375,-2.1875 -2.625,-3.34375 -1.6875,-1.1875 -3.9375,-1.1875 -2.21875,0 -3.90625,1.1875 -1.6875,1.15625 -2.625,3.34375 -0.9375,2.1875 -0.9375,5.28125 0,3.0625 0.9375,5.25 0.9375,2.15625 2.625,3.34375 1.6875,1.15625 3.90625,1.15625 z m 17.26245,6.71875 13.3125,-18.96875 -0.1875,4.09375 -12.3125,-18.125 h 10.0625 l 2.90625,4.625 q 1.25,2.09375 2.375,4.0625 1.125,1.96875 2.25,3.9375 h -2.9375 q 1.1875,-1.96875 2.3125,-3.9375 1.125,-1.96875 2.4375,-4.0625 l 2.96875,-4.625 h 9.90625 l -12.625,18.125 0.1875,-4.09375 12.96875,18.96875 h -10.09375 l -3.3125,-5.0625 q -1.21875,-2.0625 -2.34375,-3.9375 -1.125,-1.90625 -2.28125,-3.8125 h 2.5625 q -1.1875,1.90625 -2.3125,3.8125 -1.125,1.875 -2.40625,3.9375 l -3.375,5.0625 z m 34.28125,0 16.34375,-46.5625 h 12.375 l 16.34375,46.5625 h -10.65625 l -7.3125,-22.65625 q -1.34375,-4.46875 -2.78125,-9.1875 -1.40625,-4.75 -3.0625,-10.78125 h 2.65625 q -1.71875,6.03125 -3.15625,10.78125 -1.40625,4.71875 -2.8125,9.1875 l -7.5625,22.65625 z m 10.375,-10.15625 v -7.6875 h 24.34375 v 7.6875 z m 38.25,23.21875 v -46.0625 h 9.09375 v 4.46875 h 0.0937 q 1.03125,-1.71875 2.46875,-2.84375 1.46875,-1.15625 3.3125,-1.71875 1.875,-0.59375 4,-0.59375 4.21875,0 7.40625,2.1875 3.21875,2.15625 5,6.03125 1.8125,3.84375 1.8125,8.9375 0,5.15625 -1.78125,9.03125 -1.78125,3.875 -4.96875,6.03125 -3.1875,2.15625 -7.53125,2.15625 -2.15625,0 -4,-0.625 -1.8125,-0.625 -3.25,-1.875 -1.40625,-1.25 -2.34375,-3.125 h -0.0937 v 18 z m 16.53125,-19.875 q 2.25,0 3.875,-1.125 1.65625,-1.15625 2.5625,-3.3125 0.9375,-2.1875 0.9375,-5.28125 0,-3.09375 -0.9375,-5.25 -0.90625,-2.15625 -2.5625,-3.3125 -1.625,-1.15625 -3.875,-1.15625 -2.3125,0 -4.09375,1.21875 -1.75,1.1875 -2.71875,3.375 -0.9375,2.15625 -0.9375,5.125 0,2.9375 0.9375,5.125 0.96875,2.1875 2.71875,3.40625 1.78125,1.1875 4.09375,1.1875 z m 21.71875,19.875 v -46.0625 h 9.09375 v 4.46875 h 0.0937 q 1.03125,-1.71875 2.46875,-2.84375 1.46875,-1.15625 3.3125,-1.71875 1.875,-0.59375 4,-0.59375 4.21875,0 7.40625,2.1875 3.21875,2.15625 5,6.03125 1.8125,3.84375 1.8125,8.9375 0,5.15625 -1.78125,9.03125 -1.78125,3.875 -4.96875,6.03125 -3.1875,2.15625 -7.53125,2.15625 -2.15625,0 -4,-0.625 -1.8125,-0.625 -3.25,-1.875 -1.40625,-1.25 -2.34375,-3.125 h -0.0937 v 18 z m 16.53125,-19.875 q 2.25,0 3.875,-1.125 1.65625,-1.15625 2.5625,-3.3125 0.9375,-2.1875 0.9375,-5.28125 0,-3.09375 -0.9375,-5.25 -0.90625,-2.15625 -2.5625,-3.3125 -1.625,-1.15625 -3.875,-1.15625 -2.3125,0 -4.09375,1.21875 -1.75,1.1875 -2.71875,3.375 -0.9375,2.15625 -0.9375,5.125 0,2.9375 0.9375,5.125 0.96875,2.1875 2.71875,3.40625 1.78125,1.1875 4.09375,1.1875 z"
         id="text1"
         style="font-weight:bold;font-size:64px;font-family:'Adwaita Sans';-inkscape-font-specification:'Adwaita Sans Bold'"
         aria-label="AlmoxApp" /><g
         style="fill:none"
         id="g1"
         transform="matrix(4.9943472,0,0,4.9943472,245.33737,251.44227)"><path
           d="m 8.42229,20.6181 c 1.75561,0.9214 2.63341,1.382 3.57771,1.382 v -10 L 2.63802,7.07275 C 2.62423,7.09491 2.6107,7.11727 2.5974,7.13986 2,8.15436 2,9.41678 2,11.9416 v 0.117 c 0,2.5248 0,3.7873 0.5974,4.8018 0.59739,1.0145 1.67323,1.5791 3.82489,2.7082 z"
           fill="#1c274c"
           id="path1-7"
           style="fill:#c87137" /><path
           opacity="0.7"
           d="m 17.5774,4.43152 -2,-1.04955 C 13.8218,2.46066 12.944,2 11.9997,2 11.0554,2 10.1776,2.46066 8.42197,3.38197 l -2,1.04955 C 4.31821,5.53552 3.24291,6.09982 2.6377,7.07264 L 11.9997,12 21.3617,7.07264 C 20.7564,6.09982 19.6811,5.53552 17.5774,4.43152 Z"
           fill="#1c274c"
           id="path2"
           style="fill:#e9c6af" /><path
           opacity="0.5"
           d="M 21.4026,7.13986 C 21.3893,7.11727 21.3758,7.09491 21.362,7.07275 L 12,12.0001 v 10 c 0.9443,0 1.8221,-0.4606 3.5777,-1.382 l 2,-1.0495 c 2.1517,-1.1291 3.2275,-1.6937 3.8249,-2.7082 C 22,15.8459 22,14.5834 22,12.0586 v -0.117 C 22,9.41678 22,8.15436 21.4026,7.13986 Z"
           fill="#1c274c"
           id="path3"
           style="fill:#a05a2c" /><path
           d="M 6.32334,4.48382 C 6.35617,4.46658 6.38926,4.44922 6.42261,4.43172 L 7.91614,3.64795 17.0169,8.65338 21.0406,6.64152 c 0.1377,0.15593 0.2574,0.32023 0.3623,0.49842 0.1496,0.25402 0.2617,0.52358 0.3458,0.82461 l -3.9984,1.99918 v 3.03647 c 0,0.4142 -0.3358,0.75 -0.75,0.75 -0.4142,0 -0.75,-0.3358 -0.75,-0.75 v -2.2865 l -3.5,1.75 v 9.4405 c -0.2569,0.064 -0.5011,0.096 -0.75,0.096 -0.2488,0 -0.4931,-0.032 -0.75,-0.096 V 12.4637 L 2.25195,7.96455 C 2.33601,7.66352 2.44813,7.39396 2.59771,7.13994 2.70264,6.96175 2.82232,6.79745 2.96001,6.64152 l 9.04029,4.52018 3.3862,-1.69313 z"
           fill="#1c274c"
           id="path4"
           style="fill:#502d16" /></g></g></g></svg>
